<?xml version="1.0" encoding="UTF-8"?>
<svg xmlns="http://www.w3.org/2000/svg" xmlns:xlink="http://www.w3.org/1999/xlink" width="800px" height="800px" viewBox="0 0 800 800" version="1.1">
<g id="surface1">
<path style=" stroke:none;fill-rule:nonzero;fill:rgb(0%,0%,0%);fill-opacity:1;" d="M 341.5 192.898438 C 309.101562 211.5 261.800781 238.601562 236.5 253.199219 L 190.5 279.699219 L 190.199219 400.601562 C 190 514.898438 190.101562 521.601562 191.699219 522.601562 C 196.199219 525.398438 398.300781 641.199219 399.5 641.601562 C 400.601562 642.101562 473.199219 600.898438 595.300781 530.601562 L 611 521.5 L 610.800781 400.699219 L 610.5 279.898438 L 563 252.5 C 536.898438 237.5 490.5 210.898438 460 193.398438 C 429.5 175.898438 403.601562 161.101562 402.5 160.398438 C 400.699219 159.199219 394.398438 162.601562 341.5 192.898438 Z M 359.699219 267.699219 C 381.5 280.101562 399.800781 290.300781 400.398438 290.300781 C 401 290.300781 418.601562 280.5 439.5 268.5 C 460.398438 256.5 478.5 246.300781 479.699219 245.699219 C 481.699219 244.800781 487 247.5 521 267.101562 C 542.5 279.398438 559.898438 289.800781 559.699219 290.300781 C 559.199219 291.800781 402.601562 381.398438 400.5 381.398438 C 398 381.398438 241.5 291.5 241.5 290.101562 C 241.5 289 316.601562 245.300781 318.800781 245.101562 C 319.5 245 337.898438 255.199219 359.699219 267.699219 Z M 303 365 C 345.601562 389.398438 381.300781 410 382.300781 410.800781 C 383.898438 412.199219 384 417.800781 384 502.601562 C 384 552.300781 383.699219 593.101562 383.300781 593.300781 C 382.5 593.699219 303.699219 548.601562 300.5 546 C 299.199219 544.898438 299 539.601562 299 504.601562 L 299 464.5 L 261.699219 443.398438 L 224.5 422.300781 L 224.199219 371.101562 C 224.101562 342.898438 224.300781 320.101562 224.699219 320.300781 C 225.199219 320.5 260.398438 340.601562 303 365 Z M 577 371.199219 L 576.898438 422.5 L 539.5 443.5 L 502 464.5 L 502 545.5 L 463.800781 567.5 C 442.699219 579.5 423.601562 590.5 421.300781 591.800781 L 417 594.199219 L 417 411.5 L 496.800781 365.800781 C 540.601562 340.601562 576.601562 320 576.800781 320 C 576.898438 320 577 343.101562 577 371.199219 Z M 577 371.199219 "/>
</g>
</svg>
